<?xml version="1.0" standalone="no"?><!DOCTYPE svg PUBLIC "-//W3C//DTD SVG 1.1//EN" "http://www.w3.org/Graphics/SVG/1.1/DTD/svg11.dtd"><svg t="1716889738762" class="icon" viewBox="0 0 1024 1024" version="1.1" xmlns="http://www.w3.org/2000/svg" p-id="1553" data-spm-anchor-id="a313x.search_index.0.i1.117c3a81n2AMyE" xmlns:xlink="http://www.w3.org/1999/xlink" width="200" height="200"><path d="M854.87104 849.87904a30.01856 30.01856 0 0 1-42.43968 0l-140.12416-140.18048c-54.27712 46.8224-124.8256 75.33056-202.10688 75.33056-171.136 0-309.85216-138.71616-309.85216-309.85216 0-171.11552 138.71104-309.85216 309.85216-309.85216 171.15648 0 309.85216 138.73664 309.85216 309.85216 0 72.18688-24.9088 138.49088-66.304 191.14496l141.14816 141.15328a30.07488 30.07488 0 0 1-0.0256 42.40384zM470.1952 225.29536c-137.99424 0-249.87648 111.88736-249.87648 249.8816 0 138.01472 111.88736 249.8816 249.87648 249.8816 137.99936 0 249.87648-111.872 249.87648-249.8816 0.00512-137.99424-111.87712-249.8816-249.87648-249.8816z" p-id="1554" fill="#8a8a8a"></path></svg>