<svg xmlns="http://www.w3.org/2000/svg" xmlns:xlink="http://www.w3.org/1999/xlink" viewBox="0 0 84 84" width="84" height="84" preserveAspectRatio="xMidYMid meet" style="width: 100%; height: 100%; transform: translate3d(0px, 0px, 0px); content-visibility: visible;"><defs><clipPath id="__lottie_element_22"><rect width="84" height="84" x="0" y="0"></rect></clipPath><clipPath id="__lottie_element_24"><path d="M0,0 L360,0 L360,360 L0,360z"></path></clipPath><clipPath id="__lottie_element_28"><path d="M0,0 L336,0 L336,336 L0,336z"></path></clipPath><clipPath id="__lottie_element_59"><path d="M0,0 L336,0 L336,336 L0,336z"></path></clipPath></defs><g clip-path="url(#__lottie_element_22)"><g clip-path="url(#__lottie_element_24)" transform="matrix(0.23999999463558197,0,0,0.23999999463558197,-1.2000007629394531,-2.700000762939453)" opacity="1" style="display: block;"><g clip-path="url(#__lottie_element_59)" transform="matrix(1,0,0,1,12,12)" opacity="1" style="display: block;"><g transform="matrix(2.755199909210205,0,0,2.755199909210205,62.24030303955078,66.6829833984375)" opacity="1" style="display: block;"><g opacity="1" transform="matrix(1,0,0,1,38.452999114990234,43.72999954223633)"><path fill="rgb(46,234,126)" fill-opacity="1" d=" M-0.9570000171661377,-36.15700149536133 C-5.590000152587891,-41.25 -15.82699966430664,-42.44900131225586 -21.299999237060547,-38.27299880981445 C-17.479000091552734,-36.43000030517578 -13.270999908447266,-34.14699935913086 -12.08899974822998,-30.072999954223633 C-17.976999282836914,-29.656999588012695 -24.024999618530273,-28.84000015258789 -29.128000259399414,-25.874000549316406 C-34.23099899291992,-22.906999588012695 -38.202999114990234,-17.31999969482422 -37.65999984741211,-11.442999839782715 C-35.277000427246094,-11.975000381469727 -32.867000579833984,-12.38700008392334 -30.441999435424805,-12.678000450134277 C-29.562000274658203,-12.784000396728516 -28.031999588012695,-12.61299991607666 -27.29199981689453,-12.125 C-26.3799991607666,-11.52400016784668 -26.097000122070312,-10.293000221252441 -26.326000213623047,-9.225000381469727 C-26.554000854492188,-8.156999588012695 -28.132999420166016,-6.309000015258789 -28.67300033569336,-5.359000205993652 C-32.72200012207031,1.7730000019073486 -31.750999450683594,11.246999740600586 -28.757999420166016,11.163000106811523 C-25.648000717163086,9.005999565124512 -23.888999938964844,6.576000213623047 -20.695999145507812,4.544000148773193 C-18.305999755859375,3.0230000019073486 -16.14299964904785,2.2950000762939453 -14.29800033569336,1.7580000162124634 C-12.45199966430664,1.2209999561309814 -10.302000045776367,1.3509999513626099 -8.815999984741211,2.569999933242798 C-7.814000129699707,3.3910000324249268 -7.2210001945495605,4.599999904632568 -6.7270002365112305,5.797999858856201 C-1.3359999656677246,18.856000900268555 -4.619999885559082,34.08599853515625 -15.170999526977539,43.47999954223633 C-6.715000152587891,40.83300018310547 2.5290000438690186,38.3849983215332 10.847000122070312,41.29899978637695 C11.178000450134277,41.415000915527344 11.527000427246094,41.244998931884766 11.619000434875488,40.90700149536133 C12.565999984741211,37.41699981689453 12.99899959564209,34.50899887084961 12.625,29.836000442504883 C12.42199993133545,27.301000595092773 12.104999542236328,24.666000366210938 11.383999824523926,21.461999893188477 C9.00100040435791,10.873000144958496 8.371000289916992,10.010000228881836 6.447999954223633,5.173999786376953 C6.2179999351501465,4.5970001220703125 6.570000171661377,3.930999994277954 7.170000076293945,3.7679998874664307 C9.597000122070312,3.1059999465942383 12.545000076293945,4.111999988555908 16.28499984741211,7.105999946594238 C18.14299964904785,8.593000411987305 20.621000289916992,12.460000038146973 22.52199935913086,16.72100067138672 C25.658000946044922,13.092000007629395 27.106000900268555,8.062000274658203 26.378000259399414,3.322000026702881 C25.650999069213867,-1.4190000295639038 22.76099967956543,-5.7829999923706055 18.68199920654297,-8.305000305175781 C21.98200035095215,-8.590999603271484 25.339000701904297,-8.04699993133545 27.98699951171875,-6.997000217437744 C33.402000427246094,-4.849999904632568 34.96200180053711,-3.055999994277954 36.5260009765625,-0.6859999895095825 C37.77000045776367,-4.78000020980835 38.2239990234375,-10.859999656677246 37.305999755859375,-14.779000282287598 C36.40999984741211,-18.606000900268555 34.356998443603516,-22.25200080871582 31.172000885009766,-24.555999755859375 C28.924999237060547,-26.180999755859375 26.224000930786133,-27.076000213623047 23.5,-27.591999053955078 C18.631000518798828,-28.514999389648438 13.54800033569336,-28.281999588012695 8.782999992370605,-26.920000076293945 C8.618000030517578,-30.33099937438965 10.479999542236328,-33.5880012512207 12.989999771118164,-35.90399932861328 C15.5,-38.21900177001953 18.618000030517578,-39.74700164794922 21.687999725341797,-41.24300003051758 C17.625,-42.50600051879883 13.352999687194824,-43.48099899291992 9.13700008392334,-42.90299987792969 C4.921999931335449,-42.32400131225586 0.7480000257492065,-39.92499923706055 -0.9549999833106995,-36.0260009765625"></path><path stroke-linecap="round" stroke-linejoin="round" fill-opacity="0" stroke="rgb(0,190,83)" stroke-opacity="1" stroke-width="3" d=" M-0.9570000171661377,-36.15700149536133 C-5.590000152587891,-41.25 -15.82699966430664,-42.44900131225586 -21.299999237060547,-38.27299880981445 C-17.479000091552734,-36.43000030517578 -13.270999908447266,-34.14699935913086 -12.08899974822998,-30.072999954223633 C-17.976999282836914,-29.656999588012695 -24.024999618530273,-28.84000015258789 -29.128000259399414,-25.874000549316406 C-34.23099899291992,-22.906999588012695 -38.202999114990234,-17.31999969482422 -37.65999984741211,-11.442999839782715 C-35.277000427246094,-11.975000381469727 -32.867000579833984,-12.38700008392334 -30.441999435424805,-12.678000450134277 C-29.562000274658203,-12.784000396728516 -28.031999588012695,-12.61299991607666 -27.29199981689453,-12.125 C-26.3799991607666,-11.52400016784668 -26.097000122070312,-10.293000221252441 -26.326000213623047,-9.225000381469727 C-26.554000854492188,-8.156999588012695 -28.132999420166016,-6.309000015258789 -28.67300033569336,-5.359000205993652 C-32.72200012207031,1.7730000019073486 -31.750999450683594,11.246999740600586 -28.757999420166016,11.163000106811523 C-25.648000717163086,9.005999565124512 -23.888999938964844,6.576000213623047 -20.695999145507812,4.544000148773193 C-18.305999755859375,3.0230000019073486 -16.14299964904785,2.2950000762939453 -14.29800033569336,1.7580000162124634 C-12.45199966430664,1.2209999561309814 -10.302000045776367,1.3509999513626099 -8.815999984741211,2.569999933242798 C-7.814000129699707,3.3910000324249268 -7.2210001945495605,4.599999904632568 -6.7270002365112305,5.797999858856201 C-1.3359999656677246,18.856000900268555 -4.619999885559082,34.08599853515625 -15.170999526977539,43.47999954223633 C-6.715000152587891,40.83300018310547 2.5290000438690186,38.3849983215332 10.847000122070312,41.29899978637695 C11.178000450134277,41.415000915527344 11.527000427246094,41.244998931884766 11.619000434875488,40.90700149536133 C12.565999984741211,37.41699981689453 12.99899959564209,34.50899887084961 12.625,29.836000442504883 C12.42199993133545,27.301000595092773 12.104999542236328,24.666000366210938 11.383999824523926,21.461999893188477 C9.00100040435791,10.873000144958496 8.371000289916992,10.010000228881836 6.447999954223633,5.173999786376953 C6.2179999351501465,4.5970001220703125 6.570000171661377,3.930999994277954 7.170000076293945,3.7679998874664307 C9.597000122070312,3.1059999465942383 12.545000076293945,4.111999988555908 16.28499984741211,7.105999946594238 C18.14299964904785,8.593000411987305 20.621000289916992,12.460000038146973 22.52199935913086,16.72100067138672 C25.658000946044922,13.092000007629395 27.106000900268555,8.062000274658203 26.378000259399414,3.322000026702881 C25.650999069213867,-1.4190000295639038 22.76099967956543,-5.7829999923706055 18.68199920654297,-8.305000305175781 C21.98200035095215,-8.590999603271484 25.339000701904297,-8.04699993133545 27.98699951171875,-6.997000217437744 C33.402000427246094,-4.849999904632568 34.96200180053711,-3.055999994277954 36.5260009765625,-0.6859999895095825 C37.77000045776367,-4.78000020980835 38.2239990234375,-10.859999656677246 37.305999755859375,-14.779000282287598 C36.40999984741211,-18.606000900268555 34.356998443603516,-22.25200080871582 31.172000885009766,-24.555999755859375 C28.924999237060547,-26.180999755859375 26.224000930786133,-27.076000213623047 23.5,-27.591999053955078 C18.631000518798828,-28.514999389648438 13.54800033569336,-28.281999588012695 8.782999992370605,-26.920000076293945 C8.618000030517578,-30.33099937438965 10.479999542236328,-33.5880012512207 12.989999771118164,-35.90399932861328 C15.5,-38.21900177001953 18.618000030517578,-39.74700164794922 21.687999725341797,-41.24300003051758 C17.625,-42.50600051879883 13.352999687194824,-43.48099899291992 9.13700008392334,-42.90299987792969 C4.921999931335449,-42.32400131225586 0.7480000257492065,-39.92499923706055 -0.9549999833106995,-36.0260009765625"></path></g></g><g transform="matrix(2.755199909210205,0,0,2.755199909210205,127.14730072021484,116.2545394897461)" opacity="1" style="display: block;"><g opacity="1" transform="matrix(1,0,0,0.9996100068092346,3.8359999656677246,7.821000099182129)"><path fill="rgb(4,4,4)" fill-opacity="1" d=" M3.3010001182556152,0 C3.3010001182556152,4.038000106811523 1.8229999542236328,7.310999870300293 -0.0010000000474974513,7.310999870300293 C-1.8240000009536743,7.310999870300293 -3.3010001182556152,4.038000106811523 -3.3010001182556152,0 C-3.3010001182556152,-4.038000106811523 -1.8240000009536743,-7.310999870300293 -0.0010000000474974513,-7.310999870300293 C1.8229999542236328,-7.310999870300293 3.3010001182556152,-4.038000106811523 3.3010001182556152,0z"></path><path stroke-linecap="butt" stroke-linejoin="miter" fill-opacity="0" stroke-miterlimit="10" stroke="rgb(4,4,4)" stroke-opacity="1" stroke-width="0.2" d=" M3.3010001182556152,0 C3.3010001182556152,4.038000106811523 1.8229999542236328,7.310999870300293 -0.0010000000474974513,7.310999870300293 C-1.8240000009536743,7.310999870300293 -3.3010001182556152,4.038000106811523 -3.3010001182556152,0 C-3.3010001182556152,-4.038000106811523 -1.8240000009536743,-7.310999870300293 -0.0010000000474974513,-7.310999870300293 C1.8229999542236328,-7.310999870300293 3.3010001182556152,-4.038000106811523 3.3010001182556152,0z"></path></g></g><g transform="matrix(3.020057201385498,0,0,2.755199909210205,161.53939819335938,116.3785171508789)" opacity="1" style="display: block;"><g opacity="1" transform="matrix(1,0,0,1,3.8010001182556152,7.810999870300293)"><path fill="rgb(4,4,4)" fill-opacity="1" d=" M3.3010001182556152,0 C3.3010001182556152,4.038000106811523 1.8229999542236328,7.310999870300293 -0.0010000000474974513,7.310999870300293 C-1.8240000009536743,7.310999870300293 -3.3010001182556152,4.038000106811523 -3.3010001182556152,0 C-3.3010001182556152,-4.038000106811523 -1.8240000009536743,-7.310999870300293 -0.0010000000474974513,-7.310999870300293 C1.8229999542236328,-7.310999870300293 3.3010001182556152,-4.038000106811523 3.3010001182556152,0z"></path><path stroke-linecap="butt" stroke-linejoin="miter" fill-opacity="0" stroke-miterlimit="10" stroke="rgb(4,4,4)" stroke-opacity="1" stroke-width="0.2" d=" M3.3010001182556152,0 C3.3010001182556152,4.038000106811523 1.8229999542236328,7.310999870300293 -0.0010000000474974513,7.310999870300293 C-1.8240000009536743,7.310999870300293 -3.3010001182556152,4.038000106811523 -3.3010001182556152,0 C-3.3010001182556152,-4.038000106811523 -1.8240000009536743,-7.310999870300293 -0.0010000000474974513,-7.310999870300293 C1.8229999542236328,-7.310999870300293 3.3010001182556152,-4.038000106811523 3.3010001182556152,0z"></path></g></g><g transform="matrix(2.604187250137329,0,0,2.604187250137329,145.93704223632812,165.06065368652344)" opacity="1" style="display: block;"><g opacity="1" transform="matrix(1,0,0,1,10.789999961853027,4.644000053405762)"><path fill="rgb(4,4,4)" fill-opacity="1" d=" M-9.496999740600586,0.6489999890327454 C-7.85699987411499,2.1010000705718994 -5.663000106811523,3.0989999771118164 -3.5309998989105225,3.5160000324249268 C1.4910000562667847,4.497000217437744 6.074999809265137,2.246999979019165 9.576000213623047,-1.2660000324249268 C10.838000297546387,-2.5329999923706055 8.875,-4.497000217437744 7.611000061035156,-3.2290000915527344 C4.754000186920166,-0.3619999885559082 0.9549999833106995,1.6929999589920044 -3.128000020980835,0.7680000066757202 C-4.431000232696533,0.4729999899864197 -5.302000045776367,0.11500000208616257 -6.427999973297119,-0.5569999814033508 C-6.763999938964844,-0.7580000162124634 -7.078999996185303,-0.9850000143051147 -7.4019999504089355,-1.2039999961853027 C-7.684999942779541,-1.3960000276565552 -7.122000217437744,-0.9769999980926514 -7.440999984741211,-1.2369999885559082 C-7.4720001220703125,-1.2619999647140503 -7.502999782562256,-1.2879999876022339 -7.5329999923706055,-1.3140000104904175 C-8.866000175476074,-2.494999885559082 -10.838000297546387,-0.5389999747276306 -9.496999740600586,0.6489999890327454z"></path></g></g><g style="display: none;" transform="matrix(0.9626753926277161,-0.007751969154924154,0.013295075856149197,1.00253427028656,174.00038146972656,165.5639190673828)" opacity="1"><g opacity="1" transform="matrix(1,0,0,1,0,0)"><path fill="rgb(255,148,199)" fill-opacity="1" d=" M-10.137201309204102,3.2111682891845703 C-16.445201873779297,4.710168361663818 -20.84503746032715,8.23331069946289 -20.84503746032715,8.23331069946289 C-20.84503746032715,8.23331069946289 -6.631350517272949,10.211264610290527 3.402287483215332,1.4561445713043213 C3.964287519454956,1.3940892219543457 1.1747983694076538,0.5231683254241943 -10.137201309204102,3.2111682891845703z"></path><path stroke-linecap="butt" stroke-linejoin="miter" fill-opacity="0" stroke-miterlimit="4" stroke="rgb(255,255,255)" stroke-opacity="1" stroke-width="0" d=" M-10.137201309204102,3.2111682891845703 C-16.445201873779297,4.710168361663818 -20.84503746032715,8.23331069946289 -20.84503746032715,8.23331069946289 C-20.84503746032715,8.23331069946289 -6.631350517272949,10.211264610290527 3.402287483215332,1.4561445713043213 C3.964287519454956,1.3940892219543457 1.1747983694076538,0.5231683254241943 -10.137201309204102,3.2111682891845703z"></path></g></g><g style="display: none;" transform="matrix(0.4155122935771942,0.6351113319396973,-0.6351113319396973,0.4155122935771942,147.23699951171875,328.7695007324219)" opacity="0.011190476189830463"><g opacity="1" transform="matrix(1,0,0,1,-108,35)"><path fill="rgb(255,148,198)" fill-opacity="1" d=" M17.75,-8 C2.8320000171661377,-15.208000183105469 3.125,0.125 3.125,0.125 C3.125,0.125 -3.125,-14.25 -13.75,-3.75 C-22.632999420166016,5.0279998779296875 -10,11.75 -10,11.75 C-10,11.75 -24.5,12.625 -20.5,24.5 C-15.51200008392334,39.30799865722656 -2.25,28.25 -2.25,28.25 C-2.25,28.25 -6.039000034332275,43.150001525878906 8.75,40.875 C25,38.375 16,25.25 16,25.25 C16,25.25 29.347999572753906,32.27299880981445 31.875,20 C35.375,3 18.25,7.5 18.25,7.5 C18.25,7.5 28.875,-2.625 17.75,-8z"></path></g></g><g style="display: none;" transform="matrix(0.6651343703269958,-0.5181686878204346,0.5181686878204346,0.6651343703269958,107.07343292236328,-23.522674560546875)" opacity="0.006904761903444268"><g opacity="1" transform="matrix(1,0,0,1,-108,35)"><path fill="rgb(255,148,198)" fill-opacity="1" d=" M17.75,-8 C2.8320000171661377,-15.208000183105469 3.125,0.125 3.125,0.125 C3.125,0.125 -3.125,-14.25 -13.75,-3.75 C-22.632999420166016,5.0279998779296875 -10,11.75 -10,11.75 C-10,11.75 -24.5,12.625 -20.5,24.5 C-15.51200008392334,39.30799865722656 -2.25,28.25 -2.25,28.25 C-2.25,28.25 -6.039000034332275,43.150001525878906 8.75,40.875 C25,38.375 16,25.25 16,25.25 C16,25.25 29.347999572753906,32.27299880981445 31.875,20 C35.375,3 18.25,7.5 18.25,7.5 C18.25,7.5 28.875,-2.625 17.75,-8z"></path></g></g><g style="display: none;" transform="matrix(0.3788512647151947,0.3865428864955902,-0.3865428864955902,0.3788512647151947,317.30841064453125,92.97782897949219)" opacity="0.09523809523809533"><g opacity="1" transform="matrix(1,0,0,1,-108,35)"><path fill="rgb(255,148,198)" fill-opacity="1" d=" M17.75,-8 C2.8320000171661377,-15.208000183105469 3.125,0.125 3.125,0.125 C3.125,0.125 -3.125,-14.25 -13.75,-3.75 C-22.632999420166016,5.0279998779296875 -10,11.75 -10,11.75 C-10,11.75 -24.5,12.625 -20.5,24.5 C-15.51200008392334,39.30799865722656 -2.25,28.25 -2.25,28.25 C-2.25,28.25 -6.039000034332275,43.150001525878906 8.75,40.875 C25,38.375 16,25.25 16,25.25 C16,25.25 29.347999572753906,32.27299880981445 31.875,20 C35.375,3 18.25,7.5 18.25,7.5 C18.25,7.5 28.875,-2.625 17.75,-8z"></path></g></g><g style="display: none;" transform="matrix(0.6575717329978943,0.7044252753257751,-0.7044252753257751,0.6575717329978943,386.6250305175781,89.59033203125)" opacity="0.0019791666660864847"><g opacity="1" transform="matrix(1,0,0,1,-108,35)"><path fill="rgb(255,148,198)" fill-opacity="1" d=" M17.75,-8 C2.8320000171661377,-15.208000183105469 3.125,0.125 3.125,0.125 C3.125,0.125 -3.125,-14.25 -13.75,-3.75 C-22.632999420166016,5.0279998779296875 -10,11.75 -10,11.75 C-10,11.75 -24.5,12.625 -20.5,24.5 C-15.51200008392334,39.30799865722656 -2.25,28.25 -2.25,28.25 C-2.25,28.25 -6.039000034332275,43.150001525878906 8.75,40.875 C25,38.375 16,25.25 16,25.25 C16,25.25 29.347999572753906,32.27299880981445 31.875,20 C35.375,3 18.25,7.5 18.25,7.5 C18.25,7.5 28.875,-2.625 17.75,-8z"></path></g></g></g><g clip-path="url(#__lottie_element_28)" style="display: none;"><g style="display: none;"><g><path></path><path stroke-linecap="round" stroke-linejoin="round" fill-opacity="0"></path></g></g><g style="display: none;"><g><path></path><path stroke-linecap="butt" stroke-linejoin="miter" fill-opacity="0" stroke-miterlimit="10"></path></g></g><g style="display: none;"><g><path></path><path stroke-linecap="butt" stroke-linejoin="miter" fill-opacity="0" stroke-miterlimit="10"></path></g></g><g style="display: none;"><g><path></path></g></g><g style="display: none;"><g><path></path><path stroke-linecap="butt" stroke-linejoin="miter" fill-opacity="0" stroke-miterlimit="4"></path></g></g><g style="display: none;"><g><path></path></g></g><g style="display: none;"><g><path></path></g></g><g style="display: none;"><g><path></path></g></g><g style="display: none;"><g><path></path></g></g></g></g></g></svg>